<?xml version="1.0" encoding="UTF-8"?>
<svg id="OBJECTS" xmlns="http://www.w3.org/2000/svg" viewBox="0 0 297.16 156.75">
  <defs>
    <style>
      .cls-1 {
        fill: #fff;
      }

      .cls-2 {
        fill: #ffc69a;
      }

      .cls-3 {
        stroke: #fff;
      }

      .cls-3, .cls-4, .cls-5, .cls-6, .cls-7, .cls-8 {
        fill: none;
        stroke-miterlimit: 10;
      }

      .cls-4, .cls-6, .cls-8 {
        stroke: #3943b3;
      }

      .cls-5, .cls-7 {
        stroke: #b3b3b3;
      }

      .cls-9 {
        fill: #e6e6e6;
      }

      .cls-10 {
        opacity: .1;
      }

      .cls-11 {
        fill: #daa184;
      }

      .cls-12 {
        fill: #eb4334;
      }

      .cls-13 {
        fill: #3943b3;
      }

      .cls-14 {
        fill: #ffa320;
      }

      .cls-15 {
        fill: #ffb780;
      }

      .cls-16 {
        fill: #411809;
      }

      .cls-6 {
        stroke-width: 2px;
      }

      .cls-6, .cls-8 {
        stroke-linecap: round;
      }

      .cls-7 {
        stroke-dasharray: 0 0 6.81 6.81;
      }

      .cls-17 {
        fill: #ffb939;
      }

      .cls-18 {
        fill: #4753de;
      }
    </style>
  </defs>
  <rect class="cls-1" x="49.36" y=".5" width="203.92" height="137.83" rx="9.6" ry="9.6"/>
  <path class="cls-9" d="M245.42,.97H58.53c-4.87-.19-8.89,3.14-8.75,8.76v3.05l203.08-.19v-3.47c0-4.32-3.4-8.15-7.45-8.15Z"/>
  <g>
    <rect class="cls-13" x="66.08" y="74.48" width="71.86" height="25.45" rx="2.33" ry="2.33"/>
    <path class="cls-1" d="M87.41,87.57c0,3.81-3.09,6.91-6.91,6.91s-6.91-3.09-6.91-6.91,3.09-6.91,6.91-6.91,6.91,3.09,6.91,6.91Z"/>
    <g>
      <line class="cls-3" x1="93.22" y1="88.29" x2="129.58" y2="88.29"/>
      <line class="cls-3" x1="93.22" y1="83.59" x2="110.64" y2="83.59"/>
      <line class="cls-3" x1="93.22" y1="92.66" x2="129.58" y2="92.66"/>
    </g>
  </g>
  <path class="cls-17" d="M241.88,27.78v-3.47c0-2.19-1.77-3.96-3.96-3.96h-75.65c-2.19,0-3.96,1.77-3.96,3.96V58.2l83.57-30.42Z"/>
  <rect class="cls-17" x="179.38" y="22.66" width="15.26" height="32.33" transform="translate(-1.05 72.17) rotate(-21.78)"/>
  <rect class="cls-5" x="158.31" y="20.34" width="83.57" height="97.31" rx="5.23" ry="5.23"/>
  <rect class="cls-17" x="174.19" y="33.64" width="15.26" height="32.33" transform="translate(-5.5 71.03) rotate(-21.78)"/>
  <rect class="cls-17" x="166.17" y="45.66" width="15.26" height="15.26" transform="translate(-7.37 68.3) rotate(-21.78)"/>
  <rect class="cls-17" x="221.68" y="26.71" width="15.26" height="21.72" transform="translate(2.43 87.78) rotate(-21.78)"/>
  <rect class="cls-9" x="66.32" y="20.34" width="71.62" height="10.4"/>
  <rect class="cls-9" x="66.32" y="106.46" width="71.62" height="4.01"/>
  <rect class="cls-9" x="66.32" y="113.94" width="71.62" height="4.01"/>
  <rect class="cls-7" x="66.08" y="42.49" width="71.86" height="25.45" rx="2.33" ry="2.33"/>
  <g>
    <circle class="cls-14" cx="234.92" cy="7.4" r="1.66"/>
    <circle class="cls-12" cx="240.47" cy="7.4" r="1.66"/>
    <circle class="cls-13" cx="246.03" cy="7.4" r="1.66"/>
  </g>
  <path class="cls-1" d="M225.85,10.15H57.99c-1.81,0-3.27-1.46-3.27-3.27h0c0-1.81,1.46-3.27,3.27-3.27H225.85c1.81,0,3.27,1.46,3.27,3.27h0c0,1.81-1.46,3.27-3.27,3.27Z"/>
  <rect class="cls-5" x="49.36" y=".5" width="203.92" height="137.83" rx="9.6" ry="9.6"/>
  <g>
    <rect class="cls-13" x="39.18" y="42.49" width="71.86" height="25.45" rx="2.33" ry="2.33"/>
    <path class="cls-1" d="M60.51,55.58c0,3.81-3.09,6.91-6.91,6.91s-6.91-3.09-6.91-6.91,3.09-6.91,6.91-6.91,6.91,3.09,6.91,6.91Z"/>
    <g>
      <line class="cls-3" x1="66.32" y1="56.3" x2="102.68" y2="56.3"/>
      <line class="cls-3" x1="66.32" y1="51.6" x2="83.74" y2="51.6"/>
      <line class="cls-3" x1="66.32" y1="60.66" x2="102.68" y2="60.66"/>
    </g>
  </g>
  <g>
    <g>
      <path class="cls-14" d="M31.56,148.69s4.5,1.28,6.72,2.51c1.77,.99,1.99,1.81-.2,1.81-2.8,0-6.13-.05-8.12-.36-1.35-.21-.79-3.38-.56-3.93l2.17-.03Z"/>
      <polygon class="cls-2" points="31.17 148.7 31.62 146.94 29.29 147.22 29.4 148.72 31.17 148.7"/>
      <path class="cls-13" d="M39.64,152.6c-2.43-.08-7.53-.29-8.87-.61-.79-.19-1.32-.53-1.68-.86,.05,.76,.27,1.43,.86,1.52,2,.31,5.32,.37,8.12,.36,.95,0,1.44-.16,1.56-.41Z"/>
      <path class="cls-11" d="M20.89,87.58s-.56-2.65,4.16-6.18,7.27-6.09,7.27-6.09l4.48-15.5,1.55,.73s.1,12.16-.58,15.78c-.68,3.61-15.65,19.27-16.88,11.27Z"/>
      <path class="cls-14" d="M33.16,71.48l5.08,.74-.19,4.25s-7.43,11.59-12.26,13.42c-4.84,1.83-7.74-.99-6.55-3.01,1.18-2.02,12.3-11.44,12.3-11.44l1.63-3.94Z"/>
      <rect class="cls-17" x="34.28" y="68.57" width="2.54" height="6.09" transform="translate(111.82 47.67) rotate(98.97)"/>
      <path class="cls-11" d="M38.35,64.06s-2.94-7.18-2.07-8.01c0,0,2.74,4.63,3.57,6.58"/>
      <g>
        <path class="cls-17" d="M3.72,144.29s3.17,3.45,4.41,5.65c.99,1.77,.75,2.58-1.12,1.44-2.39-1.46-5.19-3.25-6.73-4.56-1.04-.89,1.1-3.3,1.58-3.64l1.86,1.11Z"/>
        <polygon class="cls-2" points="3.38 144.09 4.69 142.83 2.55 141.85 1.86 143.18 3.38 144.09"/>
      </g>
      <path class="cls-13" d="M30.08,105.67l-9.25-5.16s1.55,19.52,7.47,28.14c0,0,.05,15.7,1.08,19.09l2.16-.05s3.31-17.86,3-20.71c-.57-5.23-1.12-12.78-4.45-21.31Z"/>
      <g>
        <path class="cls-16" d="M20.27,69.73s-3.7,1.82-4,8.63c-.29,6.82-1.47,7.07-1.47,7.07,0,0,5.01,2.92,10.62,0l-5.14-15.7Z"/>
        <path class="cls-2" d="M24.74,70.36c1.49,1.36,2.2,3.56,2.28,5.64,.08,2.26-3.39,2.57-5.36,1.47-1.75-.97-2.99-3.16-2.65-5.02,.43-2.41,3.75-3.91,5.73-2.09Z"/>
        <path class="cls-2" d="M22.72,73.14l-3.65,.57,1.37,8.82c.2,1.26,1.38,2.13,2.64,1.93h0c1.36-.21,2.24-1.55,1.88-2.88l-2.25-8.44Z"/>
        <path class="cls-16" d="M23.11,69.9s.9,4.94-4.04,6.15c-3.45,.85-3.35-7.74,1.52-7.92,6.84-.25,5.3,3.68,5.3,3.68,0,0-1.65-2.41-2.78-1.91Z"/>
        <polygon class="cls-11" points="24.23 78.8 21.45 77.58 24.04 78.05 24.23 78.8"/>
      </g>
      <path class="cls-13" d="M28.34,101.62l-11.27,3s-3.17,4.3-2.01,21.05c0,0-9.84,8.28-12.59,16.33l1.82,1.19s13.86-12.38,15.81-14.48c2.34-2.52,6.86-10.91,8.24-27.08Z"/>
      <path class="cls-17" d="M27.14,82.44c-.23-1.01-.96-1.83-1.93-2.19-2.09-.76-7.16-.8-7.21,6.06-.09,13.5-.94,18.31-.94,18.31,0,0,2.71,2.35,13.01,1.05l-1.36-8.53,1.2-2.62c.77-2.08,.7-4.38-.22-6.4l-2.57-5.69Z"/>
      <path class="cls-2" d="M22.96,88.12s-.56-2.65,4.16-6.18c4.72-3.53,7.27-6.09,7.27-6.09l4.48-15.5,1.55,.73s.1,12.16-.58,15.78c-.68,3.61-15.65,19.27-16.88,11.27Z"/>
      <path class="cls-2" d="M38.51,61.79s-1.03-4.37-.17-5.19c0,0,.84,1.81,1.67,3.77,.26,.61,2.9,2.52,1.54,2.31-1.36-.2-3.04-.89-3.04-.89Z"/>
      <path class="cls-2" d="M25.42,71.21s1.12,1.17,2.01,1.39c0,0-.19,.8-.86,1.19l-1.15-2.58Z"/>
      <path class="cls-13" d="M8.56,151.85c-2.03-1.34-6.26-4.19-7.23-5.16-.57-.57-.85-1.14-.98-1.61-.36,.67-.52,1.36-.06,1.74,1.54,1.31,4.34,3.1,6.73,4.56,.81,.49,1.31,.62,1.54,.46Z"/>
      <path class="cls-2" d="M2.03,143.28s2.46,4.26,3.56,3.16l-1.82-2.72-1.74-.44Z"/>
      <path class="cls-2" d="M29.66,148.65s4.32,2.42,4.63,.9l-3.02-1.27-1.61,.37Z"/>
      <path class="cls-17" d="M35.6,71.67l4.64,.85-.28,5.35s-6.89,10.37-11.73,12.2c-4.84,1.83-7.74-.99-6.55-3.01,1.18-2.02,12.3-11.44,12.3-11.44l1.63-3.94Z"/>
      <rect class="cls-17" x="36.71" y="68.76" width="2.54" height="6.09" transform="translate(114.82 45.48) rotate(98.97)"/>
      <path class="cls-13" d="M30.08,105.67l1.21,3.4-7.79,8.59,.73-11.6s2.48,.08,5.85-.39Z"/>
      <path class="cls-18" d="M21.04,124.39c-1.59,1.64-2.09,2.38-2.32,3.34-.18,.78,.01,.89-.2,1.36-.6,1.3-2.29,1.03-4.36,1.98-1.51,.69-2.51,1.8-4.5,4.02-.99,1.1-.9,1.16-2.52,3.2-1.92,2.42-3.09,3.64-3.64,4.38l.79,.51s13.86-12.38,15.81-14.48c1.05-1.13,2.53-3.44,3.98-7.11-.27-.06-1.2,.91-3.04,2.79Z"/>
      <rect class="cls-13" x="28.55" y="146.4" width="3.63" height="1.43" transform="translate(60.74 294.23) rotate(180)"/>
      <rect class="cls-13" x="1.58" y="141.64" width="3.63" height="1.43" transform="translate(-64.84 267.34) rotate(-150)"/>
    </g>
    <g>
      <path class="cls-17" d="M16.12,75.22l8.32-6.57c-1.81-2.3-5.15-2.69-7.44-.87-2.3,1.81-2.69,5.15-.87,7.44"/>
      <path class="cls-14" d="M18.78,66.86c-.63,.19-1.24,.49-1.79,.92-2.3,1.81-2.69,5.15-.87,7.44l2.16-1.71c-1.44-2.07-1.21-4.85,.49-6.65Z"/>
      <rect class="cls-14" x="14.81" y="70.64" width="12.29" height="1.51" transform="translate(-38.53 26.7) rotate(-36.72)"/>
    </g>
    <path class="cls-13" d="M29.93,94.52c.66-1.76,.69-3.69,.13-5.46-3.14,1.14-5.83,.92-7.86,.29-1.7-6.09,.97-8.81,1.67-9.4-.67-.07-1.42-.04-2.15,.16-1.06,1.53-2.16,4.27-1.24,8.56-1.58-.77-2.47-1.62-2.47-1.62h0c-.12,12.92-1.26,18.15-1.26,18.15,0,0,3.03,1.76,13.34,.46l-1.36-8.53,1.2-2.62Z"/>
    <path class="cls-18" d="M34.53,126.97c-.57-5.23-1.12-12.78-4.45-21.31l-1.36-8.53,1.2-2.62c.66-1.76,.69-3.69,.13-5.46-.54,.2-1.06,.34-1.57,.46,.15,1.51,.22,3.49-.77,5.58-.34,.72-.87,1.58-1.09,3-.26,1.68,.07,3.02,.27,3.82,1.16,4.51,2.32,7.77,2.32,7.77,1.61,4.54,2.41,6.8,2.45,7.9,.16,4.13-1.73,6.45-.14,8.58,.77,1.03,1.84,1.35,1.91,2.45,.06,1.05-.86,1.41-1.5,2.73-.87,1.8-.1,3.1,0,5.72,.1,2.66-.64,2.98-.95,5.86-.17,1.54-.16,3.27-.02,4.77h.57s3.31-17.88,3-20.72Z"/>
  </g>
  <g>
    <g>
      <polygon class="cls-12" points="89.82 150.78 72 150.78 77.81 121.42 84.02 121.42 89.82 150.78"/>
      <rect class="cls-12" x="67.79" y="149.33" width="25.43" height="3.04"/>
    </g>
    <polygon class="cls-12" points="89.82 150.78 72 150.78 77.81 121.42 84.02 121.42 89.82 150.78"/>
    <polygon class="cls-1" points="75.35 133.86 86.48 133.86 85.57 129.27 76.26 129.27 75.35 133.86"/>
    <polygon class="cls-1" points="73.22 144.62 88.6 144.62 87.7 140.03 74.13 140.03 73.22 144.62"/>
  </g>
  <g>
    <g>
      <path class="cls-13" d="M280.95,146.42s-6.98,3.84-9.27,3.87c-2.3,.03-.6,1.01,1.9,1.25,1.98,.18,5.94-.38,8.26-.83,.18-.03,.73-.6,.73-.6l.16,.54c.22,.05,1.2-.1,1.2-.1,.09-1.17-.49-4.15-.49-4.15l-2.48,.02Z"/>
      <polygon class="cls-15" points="280.95 146.42 281.04 144.55 283.52 144.68 283.43 146.4 280.95 146.42"/>
    </g>
    <path class="cls-13" d="M280.87,90.52l8.26,1.41s-2.52,22.08-5.13,30.68c0,0,1.71,14.79-.12,22.79l-3.27,.16s-2.79-18.91-3.54-22.1c-.91-3.83,.22-13.09,3.8-32.93Z"/>
    <polygon class="cls-13" points="279.89 143.7 280.13 145.84 284.23 145.74 284.45 143.82 279.89 143.7"/>
    <g>
      <g>
        <path class="cls-13" d="M290.7,147.17s-6.98,3.84-9.27,3.87c-2.3,.03-.6,1.01,1.9,1.25,1.98,.18,5.94-.38,8.26-.83,.18-.03,.73-.6,.73-.6l.16,.54c.22,.05,1.2-.1,1.2-.1,.09-1.17-.49-4.15-.49-4.15l-2.48,.02Z"/>
        <polygon class="cls-15" points="290.7 147.17 290.79 145.31 293.27 145.43 293.18 147.16 290.7 147.17"/>
      </g>
      <path class="cls-13" d="M284.88,91.83l8.76,6.82s2.88,4.25-1.52,24.21c0,0,3.82,10.98,1.38,23.25l-3.24,.49s-3.91-20.34-4.99-23.44c-1.3-3.72-2.34-14.05-.38-31.33Z"/>
      <polygon class="cls-13" points="289.43 144.63 289.85 146.74 293.92 146.32 293.99 144.38 289.43 144.63"/>
      <polygon class="cls-13" points="284.24 98.52 279.48 98.39 278.72 102.95 285.61 114.76 284.24 98.52"/>
    </g>
    <g>
      <g>
        <path class="cls-17" d="M289.3,73.92s-3.25-2.93-7.21,2.97c-3.96,5.9-6.55,8.68-6.55,8.68l-15.03-8.29-1.57,3.19s13.54,15.49,17.85,14.45c4.3-1.04,22.22-20.02,12.51-21Z"/>
        <path class="cls-15" d="M259.04,80.58s-7.28-5.61-3.81-4.62c1.57,.45,2.96,1.64,3.51,1.15,.54-.48-.61-.93-.81-2-.18-.97,3.24,2.67,3.24,2.67l-2.13,2.8Z"/>
        <g class="cls-10">
          <polygon points="264.12 82.12 270.36 87.94 263.3 84.64 264.12 82.12"/>
        </g>
        <g class="cls-10">
          <polygon points="275.06 91.25 282.58 84.44 282.58 86.24 278.82 92.25 275.06 91.25"/>
        </g>
        <polygon class="cls-17" points="258.11 80.47 259.66 81.64 262.53 78.14 260.98 76.97 258.11 80.47"/>
      </g>
      <path class="cls-17" d="M286.17,71.55c2.51-.92,9.63-1.52,10.73,4.56,1,5.55-1.11,10.38-1.94,14.32-.59,2.81-.91,7.04-.91,7.04,0,0-4.66,5.51-13.34,3.04l.56-9.43,.59-5.22c-.48-5.93-.34-6.66,.72-9.64,.44-1.25,2.06-3.93,3.25-4.52,.11-.06,.23-.11,.35-.15Z"/>
      <path class="cls-13" d="M282.34,81.24l-.74-.56c0-3.79,1.56-9.03,7.66-9.5h.19c-7.85,1.52-7.11,9.96-7.11,10.06Z"/>
      <path class="cls-15" d="M288.41,61.7l4.51-.03-.54,9.41c-.02,.28-.08,.61-.33,.78-1.85,1.33-3.42,.68-3.42,.68-1.52-.36-.42-1.06-.19-2.77l-.02-8.08Z"/>
      <path class="cls-15" d="M287.84,59.57c-2.19,2.75-2.44,5.17-2.37,7.69,.09,3.19,4.33,3.23,7.03,1.55,2.4-1.49,3.52-4.23,2.93-6.83-.77-3.37-5.24-5.38-7.6-2.41Z"/>
      <g class="cls-10">
        <polygon points="288.21 70.7 290.78 69.66 288.41 69.91 288.21 70.7"/>
      </g>
      <path class="cls-15" d="M286.39,62.61s-.93,.74-1.85,1.95c0,0,.39,.82,1.2,1.09l.65-3.04Z"/>
      <path class="cls-16" d="M295.92,61.49c-.17-4.35-7.72-4.31-8.63-3.59-1.76,1.37-.34,2.92-.34,2.92l.37-.28c.06-.03,.13-.06,.21-.09,1.11,.16,5,.96,3.81,4.03-.3,.77,.36,1.13,1.15,1.17,.07,.93,.07,1.93-.09,2.93-.11,.72,3.78-.02,3.51-7.08Z"/>
      <g>
        <path class="cls-13" d="M256.03,69.38h.99v20.53h-1.62v-19.91c0-.34,.28-.62,.62-.62Z" transform="translate(26.76 218.72) rotate(-48.49)"/>
        <path class="cls-1" d="M263.78,81.46c.44,.39,.69,.95,.68,1.53l-.03,2.86-15.38-13.61,4.43,.69c.52,.08,1,.31,1.4,.66l8.89,7.87Z"/>
      </g>
      <path class="cls-15" d="M289.94,66.24c.35,.53,1.24,.55,2,.05,.76-.5,1.09-1.33,.74-1.86-.35-.53-1.24-.55-2-.05-.76,.5-1.09,1.33-.74,1.86Z"/>
      <path class="cls-13" d="M294.09,99.9s.28-6.66,.87-9.47c.33-1.58,.87-3.3,1.33-5.15-5.6-.51-10.99-2.8-14.68-4.74-.04,1.21,.05,2.79,.25,5.31l-1.15,5.22-1.6,9.56c8.67,2.47,14.98-.73,14.98-.73Z"/>
    </g>
    <path class="cls-13" d="M291.32,105.95l-2.92-.79c3.77-13.9,5.61-26.92,4.01-28.42-1.04-.94-1.72-.89-2.13-.77-2.21,.61-4.35,5.43-5.03,7.67l-2.29-.89c.27-.86,2.12-8.48,6.52-9.7,1.17-.32,2.98-.34,4.97,1.44,3.93,3.53-.87,23.18-3.11,31.46Z"/>
    <g>
      <path class="cls-17" d="M290.53,74.95s-2.95,0-6.15,6.34c-3.2,6.34-4.87,8.03-4.87,8.03l-15.08-6.65-2.62,3.4s16.13,13.76,19.89,11.43c7.02-4.34,18.58-22.76,8.83-22.54Z"/>
      <path class="cls-15" d="M261.81,86.06s-3.44,.28-4.26-1.76c-.52-1.31-2.36-4.21-.54-2.86,1.14,.84,2.7,2.41,3.17,1.75,.46-.64-1.93-.89-1.31-2.15l4.05,2.27-1.1,2.76Z"/>
    </g>
    <polygon class="cls-17" points="260.62 86.92 262.33 87.82 265.2 82.75 263.49 81.85 260.62 86.92"/>
    <g>
      <path class="cls-17" d="M296.44,62.92l-9.45-4.8c1.33-2.61,4.52-3.65,7.12-2.32,2.61,1.33,3.65,4.52,2.32,7.12"/>
      <path class="cls-14" d="M292.19,55.24c.65,.06,1.31,.24,1.93,.55,2.61,1.33,3.65,4.52,2.32,7.12l-2.46-1.25c1.01-2.31,.23-4.99-1.8-6.43Z"/>
      <rect class="cls-14" x="290.19" y="53.98" width="1.51" height="12.29" transform="translate(111.99 297.28) rotate(-64.64)"/>
    </g>
  </g>
  <g>
    <g>
      <polygon class="cls-12" points="271.22 150.78 253.4 150.78 259.2 121.42 265.41 121.42 271.22 150.78"/>
      <rect class="cls-12" x="249.18" y="149.33" width="25.43" height="3.04"/>
    </g>
    <polygon class="cls-12" points="271.22 150.78 253.4 150.78 259.2 121.42 265.41 121.42 271.22 150.78"/>
    <polygon class="cls-1" points="256.74 133.86 267.87 133.86 266.96 129.27 257.65 129.27 256.74 133.86"/>
    <polygon class="cls-1" points="254.62 144.62 270 144.62 269.09 140.03 255.53 140.03 254.62 144.62"/>
  </g>
  <g>
    <path class="cls-13" d="M137.98,156.75c.36,0,.68-.25,.76-.62l13.48-65.78c.09-.42-.18-.83-.6-.92-.42-.09-.83,.18-.92,.6l-13.48,65.78c-.09,.42,.18,.83,.6,.92,.05,.01,.11,.02,.16,.02Z"/>
    <path class="cls-18" d="M150.83,96.68h19.46c.43,0,.78-.35,.78-.78s-.35-.78-.78-.78h-19.46c-.43,0-.78,.35-.78,.78s.35,.78,.78,.78Z"/>
    <path class="cls-18" d="M148.93,105.14h19.46c.43,0,.78-.35,.78-.78s-.35-.78-.78-.78h-19.46c-.43,0-.78,.35-.78,.78s.35,.78,.78,.78Z"/>
    <path class="cls-18" d="M147.3,113.6h19.46c.43,0,.78-.35,.78-.78s-.35-.78-.78-.78h-19.46c-.43,0-.78,.35-.78,.78s.35,.78,.78,.78Z"/>
    <path class="cls-18" d="M145.54,122.06h19.46c.43,0,.78-.35,.78-.78s-.35-.78-.78-.78h-19.46c-.43,0-.78,.35-.78,.78s.35,.78,.78,.78Z"/>
    <path class="cls-18" d="M143.88,130.52h19.46c.43,0,.78-.35,.78-.78s-.35-.78-.78-.78h-19.46c-.43,0-.78,.35-.78,.78s.35,.78,.78,.78Z"/>
    <path class="cls-18" d="M142.23,138.98h19.46c.43,0,.78-.35,.78-.78s-.35-.78-.78-.78h-19.46c-.43,0-.78,.35-.78,.78s.35,.78,.78,.78Z"/>
    <path class="cls-18" d="M140.55,147.45h19.46c.43,0,.78-.35,.78-.78s-.35-.78-.78-.78h-19.46c-.43,0-.78,.35-.78,.78s.35,.78,.78,.78Z"/>
    <path class="cls-13" d="M158.8,156.75c.36,0,.68-.25,.76-.62l13.48-65.78c.09-.42-.18-.83-.6-.92-.42-.09-.83,.18-.92,.6l-13.48,65.78c-.09,.42,.18,.83,.6,.92,.05,.01,.1,.02,.16,.02Z"/>
  </g>
  <g>
    <g>
      <line class="cls-6" x1="222.92" y1="48.12" x2="226.9" y2="58.26"/>
      <polyline class="cls-8" points="212.43 45.69 213.74 47.97 222.75 47.65 229.36 41.76 228.37 38.44"/>
      <line class="cls-8" x1="229.12" y1="37.82" x2="211.57" y2="45.58"/>
      <path class="cls-14" d="M226.68,42.41l-10.26,4.31c-1.48,.62-3.2-.08-3.82-1.56h0c-.62-1.48,.08-3.2,1.56-3.82l10.26-4.31c1.48-.62,3.2,.08,3.82,1.56h0c.62,1.48-.08,3.2-1.56,3.82Z"/>
      <path class="cls-17" d="M215.83,45.57l10.26-4.31c1.34-.56,2.03-2.03,1.69-3.4-.8-.96-2.16-1.34-3.37-.84l-10.26,4.31c-1.34,.56-2.03,2.03-1.69,3.4,.8,.96,2.16,1.34,3.37,.84Z"/>
    </g>
    <g>
      <g>
        <polygon class="cls-13" points="213.57 139.65 200.25 139.65 197.8 121.42 216.02 121.42 213.57 139.65"/>
        <path class="cls-4" d="M198.99,121.87c0-4.37,3.55-7.92,7.92-7.92s7.92,3.55,7.92,7.92"/>
      </g>
      <path class="cls-17" d="M212.31,122.02c.12-.12,.14-.34,.1-.6h-10.98c-.21,1.24,.3,2.6,.75,2.66,.55,.07,.93-1.85,1.61-1.81,.57,.04,1.35,1.34,.81,4.45-.48,2.74,1.18,3.32,1.37,3.28,1.71-.32,.6-6.58,2.11-7.02,.57-.17,1.14,.68,1.9,.35,.63-.27,.66-1.01,1.42-1.22,.47-.13,.72,.08,.9-.1Z"/>
    </g>
    <g>
      <g>
        <path class="cls-17" d="M223.83,105.03l8.58,1.52,6.46-3.34s-.64-4.56-.61-5.83c.09-3.06,1.56-9.94-.61-14.85-1.6-3.61-4.58-1.97-8.34-.78l-4.24,.46s-6.8-4.11-2.05,14.83c.54,2.16,.82,7.98,.82,7.98Z"/>
        <g>
          <path class="cls-2" d="M227.37,68.63c-1.68,1.72-2.39,4.4-2.34,6.89,.05,2.7,4.22,2.84,6.49,1.4,2.02-1.28,3.35-3.97,2.83-6.17-.68-2.85-4.73-4.42-6.98-2.12Z"/>
          <path class="cls-2" d="M226.49,69.87s-1.03,1.2-1.89,1.47c0,0,.23,.77,.91,1.12l.98-2.58Z"/>
        </g>
        <g>
          <path class="cls-17" d="M221.32,83.81l-2.18,8.33-1.37,4.31-8.33,14.65,2.6,1.74,10.51-14.75,1.61-4.59,6.25-12.16c.5-1.43-2.55-1.37-3.97-1.87-1.43-.5-4.1,1.37-5.13,4.35Z"/>
          <path class="cls-2" d="M209.8,110.48s-3.15,3.48-.99,3.25c1.51-.17,.42-.39,.42-.39,0,0-2.15,1.89-1.2,1.85,.95-.03,2.95,.81,3.43-.49,.59-1.57,.86-2.49,.86-2.49l-2.52-1.74Z"/>
          <rect class="cls-17" x="210.45" y="108.66" width="2.01" height="4.49" transform="translate(.76 223.25) rotate(-55.74)"/>
        </g>
        <g>
          <g>
            <polygon class="cls-17" points="231.03 73.62 225.37 57.75 228.24 56.49 236.04 72.84 236.83 77.64 231.63 78.1 231.03 73.62"/>
            <path class="cls-17" d="M235.96,89.16c-1.49,.25-2.9-.76-3.15-2.25l-1.18-8.81,5.2-.46,1.66,7.69c.25,1.49-1.03,3.58-2.53,3.83Z"/>
          </g>
          <path class="cls-2" d="M226.25,58.03s-3.24-3.45-1.88-4.13l1,1.65s-1.18-4.23-.26-4.03c.93,.2,2.96,1.38,2.75,2.75-.25,1.64-.39,3-.39,3l-1.23,.77Z"/>
          <rect class="cls-17" x="226.14" y="55.91" width="2.01" height="3.91" transform="translate(196.58 -174.54) rotate(68.22)"/>
        </g>
        <polygon class="cls-2" points="226.72 75.61 227.12 84.53 232 82.97 229.7 74.82 226.72 75.61"/>
        <path class="cls-13" d="M228.29,101.05c.26-10.23-1.05-18.33-1.87-21.6-.6-.19-1.4,.02-2.21,.54,.78,3.06,2.08,10.43,1.81,21l2.27,.06Z"/>
      </g>
      <g>
        <g>
          <path class="cls-13" d="M240.27,110.76c1.08-7.76-1.91-13.01-1.91-13.01-5.02,2.79-14.91,2.15-14.91,2.15l-1.4,13.11-.77,14.53s.33,8.13,3.75,18.94l3.87-.62s.7-7.67-.61-18.61c0,0,1.94-7.82,3-11.85,.07-.27,1.22-.69,1.28-.91,0,0,5.77-.31,7.71-3.72Z"/>
          <path class="cls-13" d="M233.74,146.36l3.38-.5s1.58-7.93,.01-18.38c0,0,2.69-5.94,2.91-15.35,.09-.46,.16-.92,.22-1.36-1.94,3.41-7.71,3.72-7.71,3.72l-2.48,13.72s1.02,6.59,3.66,18.16Z"/>
          <path class="cls-18" d="M234.48,114.21c-1.11,.23-1.91,.27-1.91,.27l-2.48,13.72s1.01,6.52,3.62,17.96c.39-.26,.72-.58,.88-.96,.34-.79-.18-1.3-.82-3.82-.4-1.57-.19-1.34-.82-4.5-.48-2.42-.72-3.63-.95-4.22-.65-1.66-1.3-2.36-.95-3.27,.33-.87,1.22-1.01,1.23-1.77,0-.64-.63-.9-.95-1.5-.78-1.43,.78-3.66,1.23-4.36,.93-1.45,1.84-3.76,1.94-7.56Z"/>
        </g>
        <polygon class="cls-2" points="225.02 146.48 225.75 148.86 228.45 148.66 228.44 145.97 225.02 146.48"/>
        <g>
          <path class="cls-17" d="M220.85,152.42s.03-1.6,3.04-2.1c1.59-.26,.77-1.44,.77-1.44l2.96-.91-2.82,4.98-3.95-.53Z"/>
          <g>
            <path class="cls-13" d="M228.1,147.93c-2,0-1.85,1.7-2.15,2.77h0s-1.41,2.02-4.42,1.79c.72,.1,1.87,.26,2.78,.38,.92,.13,1.85,.07,2.75-.17l1.68-.45c.97-.53,2.04-4.21-.47-4.32-.05,0-.11,0-.17,0Z"/>
            <path class="cls-14" d="M221.04,152.44c.17,.03,.33,.04,.49,.05-.6-.08-.9-.12-.49-.05Z"/>
          </g>
        </g>
        <polygon class="cls-2" points="233.74 146.36 234.44 148.75 237.14 148.55 237.13 145.86 233.74 146.36"/>
        <g>
          <path class="cls-17" d="M229.53,152.31s.03-1.6,3.04-2.1c1.59-.26,.77-1.44,.77-1.44l2.97-.91-2.82,4.98-3.95-.53Z"/>
          <g>
            <path class="cls-13" d="M236.78,147.82c-2,0-1.85,1.7-2.15,2.77h0s-1.41,2.02-4.42,1.79c.72,.1,1.87,.26,2.78,.38,.92,.13,1.85,.07,2.75-.17l1.68-.45c.97-.53,2.04-4.21-.47-4.32-.05,0-.11,0-.17,0Z"/>
            <path class="cls-14" d="M229.72,152.33c.17,.03,.33,.04,.49,.05-.6-.08-.9-.12-.49-.05Z"/>
          </g>
        </g>
      </g>
      <rect class="cls-13" x="224.21" y="144.91" width="5.05" height="2.13" transform="translate(-14.47 25.41) rotate(-6.22)"/>
      <rect class="cls-13" x="232.91" y="144.41" width="5.05" height="2.13" transform="translate(-14.37 26.35) rotate(-6.22)"/>
      <path class="cls-1" d="M226.64,78.9l-.08,1.5s1.97,.69,3.21,.32c1.23-.37,1.66-1.52,1.66-1.52l-.41-1.11s-1.11,1.75-4.38,.81Z"/>
      <path class="cls-16" d="M227.6,66.52s-2.89,2.61,.65,5.29c0,0,1.31,.96-.63,3.28-.4,.47-.4,1.17,0,1.64,1.18,1.38,3.76,3.41,6.5-.87,1.27-1.98,1.44-4.31,.38-5.69-1.02-1.32-1.95-2.06-3.52-2.61-1.43-.49-2.18-.32-3.39-1.05Z"/>
      <path class="cls-16" d="M227.61,75.09c-3.41,2.95-3.22,7.01-3.21,7.64,.03,3.26,3.3,5.88,3.37,6.64,.2,2.1-3.17,6.52-2.69,8.71,.7,3.17,6.33,4.32,11.86,2.01,6.32-2.64,7.14-11.05,1.49-16.83-2.5-2.56-1.68-7.57-2.16-11.22-.29-2.21-.94,.12-2-1.51-1.59-2.44-5.51-3.27-6.12-2.53-.57,.7,1.93,2.51,1.38,4.64-.28,1.06-.62,1.3-1.93,2.44Z"/>
      <path class="cls-2" d="M229.3,72.63c.23,.44-.03,1.02-.57,1.3-.54,.28-1.17,.15-1.39-.29-.23-.44,.03-1.02,.57-1.3,.54-.28,1.17-.15,1.39,.29Z"/>
    </g>
    <g>
      <path class="cls-17" d="M235.97,73.62l-8.32-6.57c1.81-2.3,5.15-2.69,7.44-.87,2.3,1.81,2.69,5.15,.87,7.44"/>
      <path class="cls-14" d="M233.31,65.26c.63,.19,1.24,.49,1.79,.92,2.3,1.81,2.69,5.15,.87,7.44l-2.16-1.71c1.44-2.07,1.21-4.85-.49-6.65Z"/>
      <rect class="cls-14" x="230.37" y="63.66" width="1.51" height="12.29" transform="translate(36.97 213.31) rotate(-53.27)"/>
    </g>
  </g>
</svg>